DBRep_DrawableShape

CASCADE Topology V1, (c) Matra-Datavision
Locations 0
Curve2ds 0
Curves 2
2 0 0 0 0 0 1 1 0 -0 -0 1 0 25.400050800101599
2 0 0 0 0 0 1 1 0 -0 -0 1 0 25.400050800101599
Polygon3D 0
PolygonOnTriangulations 0
Surfaces 1
1 0 0 0 0 0 1 1 0 -0 -0 1 0 
Triangulations 0

TShapes 8
Ve
1.00005e-007
25.4000508001016 0 0
0 0

0101101
*
Ve
1.00005e-007
-25.4000508001016 3.11060909105246e-015 0
0 0

0101101
*
Ed
 1.00005e-007 1 1 0
1  1 0 0 3.14159265358979
0

0101000
+8 0 -7 0 *
Ed
 1.00005e-007 1 1 0
1  2 0 3.14159265358979 6.28318530717959
0

0101000
+7 0 -8 0 *
Wi

0101100
+6 0 +5 0 *
Fa
0  1e-007 1 0

0111000
+4 0 *
Sh

0101000
+3 0 *
Co

1100000
+2 0 *

+1 0 
##EGADS HEADER FILE-REV 1 ##
0
  0  1  1  1  2  2  3
1 5 1
_body
1
1 5 1
_brch
1
2 8 3
_tParams
 1.944035731557e+00  7.776142926229e-02  1.500000000000e+01 
    2 0 4
1 5 2
_body
1 1 
1 5 2
_brch
1 1 
1 7 3
_faceID
1 1 1 
1 5 1
_hist
1
    4 0 3
1 5 2
_body
1 -3 
1 7 5
_edgeID
0 0 1 1 2 
1 6 1
_nface
1
    4 1 3
1 5 2
_body
1 -3 
1 7 5
_edgeID
0 0 1 1 1 
1 6 1
_nface
1
    5 0 2
1 7 1
_nodeID
1
1 6 1
_nedge
2
    5 1 2
1 7 1
_nodeID
2
1 6 1
_nedge
2
    0 0 0
