DBRep_DrawableShape

CASCADE Topology V1, (c) Matra-Datavision
Locations 0
Curve2ds 0
Curves 12
1 0 -12.7000254000508 25.400050800101599 -1 0 0 
1 12.7000254000508 0 25.400050800101599 0 -1 0 
1 0 12.7000254000508 25.400050800101599 1 0 0 
1 -12.7000254000508 0 25.400050800101599 0 1 0 
1 12.7000254000508 -12.7000254000508 0 0 0 1 
1 -12.7000254000508 -12.7000254000508 0 0 0 1 
1 0 -12.7000254000508 0 1 0 0 
1 -12.7000254000508 12.7000254000508 0 0 0 1 
1 -12.7000254000508 0 0 0 -1 0 
1 12.7000254000508 12.7000254000508 0 0 0 1 
1 0 12.7000254000508 0 -1 0 0 
1 12.7000254000508 0 0 0 1 0 
Polygon3D 0
PolygonOnTriangulations 0
Surfaces 6
1 0 0 25.400050800101599 0 0 1 1 0 -0 -0 1 0 
1 0 -12.7000254000508 0 0 -1 0 0 0 -1 1 0 0 
1 -12.7000254000508 0 0 -1 0 0 0 0 1 0 1 -0 
1 0 12.7000254000508 0 0 1 0 0 -0 1 1 0 -0 
1 0 0 0 0 0 -1 -1 0 0 0 1 0 
1 12.7000254000508 0 0 1 0 0 0 0 -1 -0 1 0 
Triangulations 0

TShapes 35
Ve
1.0001000025e-007
12.7000254000508 -12.7000254000508 25.4000508001016
0 0

0101101
*
Ve
1.0001000025e-007
-12.7000254000508 -12.7000254000508 25.4000508001016
0 0

0101101
*
Ed
 1.0001000025e-007 1 1 0
1  1 0 -12.7000254000508 12.7000254000508
0

0101000
+35 0 -34 0 *
Ve
1.0001000025e-007
12.7000254000508 12.7000254000508 25.4000508001016
0 0

0101101
*
Ed
 1.0001000025e-007 1 1 0
1  2 0 -12.7000254000508 12.7000254000508
0

0101000
+32 0 -35 0 *
Ve
1.0001000025e-007
-12.7000254000508 12.7000254000508 25.4000508001016
0 0

0101101
*
Ed
 1.0001000025e-007 1 1 0
1  3 0 -12.7000254000508 12.7000254000508
0

0101000
+30 0 -32 0 *
Ed
 1.0001000025e-007 1 1 0
1  4 0 -12.7000254000508 12.7000254000508
0

0101000
+34 0 -30 0 *
Wi

0101100
-33 0 -31 0 -29 0 -28 0 *
Fa
0  1e-007 1 0

0111000
+27 0 *
Ve
1.0001000025e-007
12.7000254000508 -12.7000254000508 0
0 0

0101101
*
Ed
 1.0001000025e-007 1 1 0
1  5 0 0 25.4000508001016
0

0101000
+25 0 -35 0 *
Ve
1.0001000025e-007
-12.7000254000508 -12.7000254000508 0
0 0

0101101
*
Ed
 1.0001000025e-007 1 1 0
1  6 0 0 25.4000508001016
0

0101000
+23 0 -34 0 *
Ed
 1.0001000025e-007 1 1 0
1  7 0 -12.7000254000508 12.7000254000508
0

0101000
+23 0 -25 0 *
Wi

0101100
+24 0 +33 0 -22 0 +21 0 *
Fa
0  1e-007 2 0

0111000
+20 0 *
Ve
1.0001000025e-007
-12.7000254000508 12.7000254000508 0
0 0

0101101
*
Ed
 1.0001000025e-007 1 1 0
1  8 0 0 25.4000508001016
0

0101000
+18 0 -30 0 *
Ed
 1.0001000025e-007 1 1 0
1  9 0 -12.7000254000508 12.7000254000508
0

0101000
+18 0 -23 0 *
Wi

0101100
+22 0 +28 0 -17 0 +16 0 *
Fa
0  1e-007 3 0

0111000
+15 0 *
Ve
1.0001000025e-007
12.7000254000508 12.7000254000508 0
0 0

0101101
*
Ed
 1.0001000025e-007 1 1 0
1  10 0 0 25.4000508001016
0

0101000
+13 0 -32 0 *
Ed
 1.0001000025e-007 1 1 0
1  11 0 -12.7000254000508 12.7000254000508
0

0101000
+13 0 -18 0 *
Wi

0101100
+17 0 +29 0 -12 0 +11 0 *
Fa
0  1e-007 4 0

0111000
+10 0 *
Ed
 1.0001000025e-007 1 1 0
1  12 0 -12.7000254000508 12.7000254000508
0

0101000
+25 0 -13 0 *
Wi

0101100
-8 0 -21 0 -16 0 -11 0 *
Fa
0  1e-007 5 0

0111000
+7 0 *
Wi

0101100
+8 0 +12 0 +31 0 -24 0 *
Fa
0  1e-007 6 0

0111000
+5 0 *
Sh

0101100
+26 0 +19 0 +14 0 +9 0 +6 0 +4 0 *
So

0100000
+3 0 *
Co

1100000
+2 0 *

+1 0 
##EGADS HEADER FILE-REV 1 ##
0
  1  1  6  6  12  8  3
1 5 1
_body
1
1 5 1
_brch
1
2 8 3
_tParams
 1.099854471175e+00  4.399417884702e-02  1.500000000000e+01 
    2 0 4
1 5 2
_body
1 1 
1 5 2
_brch
1 1 
1 7 3
_faceID
1 1 1 
1 5 1
_hist
1
    2 1 4
1 5 2
_body
1 2 
1 5 2
_brch
1 2 
1 7 3
_faceID
1 2 1 
1 5 1
_hist
1
    2 2 4
1 5 2
_body
1 3 
1 5 2
_brch
1 3 
1 7 3
_faceID
1 3 1 
1 5 1
_hist
1
    2 3 4
1 5 2
_body
1 4 
1 5 2
_brch
1 4 
1 7 3
_faceID
1 4 1 
1 5 1
_hist
1
    2 4 4
1 5 2
_body
1 5 
1 5 2
_brch
1 5 
1 7 3
_faceID
1 5 1 
1 5 1
_hist
1
    2 5 4
1 5 2
_body
1 6 
1 5 2
_brch
1 6 
1 7 3
_faceID
1 6 1 
1 5 1
_hist
1
    4 0 3
1 5 2
_body
1 102 
1 7 5
_edgeID
1 1 1 2 1 
1 6 1
_nface
2
    4 1 3
1 5 2
_body
1 106 
1 7 5
_edgeID
1 1 1 6 1 
1 6 1
_nface
2
    4 2 3
1 5 2
_body
1 104 
1 7 5
_edgeID
1 1 1 4 1 
1 6 1
_nface
2
    4 3 3
1 5 2
_body
1 103 
1 7 5
_edgeID
1 1 1 3 1 
1 6 1
_nface
2
    4 4 3
1 5 2
_body
1 206 
1 7 5
_edgeID
1 2 1 6 1 
1 6 1
_nface
2
    4 5 3
1 5 2
_body
1 203 
1 7 5
_edgeID
1 2 1 3 1 
1 6 1
_nface
2
    4 6 3
1 5 2
_body
1 205 
1 7 5
_edgeID
1 2 1 5 1 
1 6 1
_nface
2
    4 7 3
1 5 2
_body
1 304 
1 7 5
_edgeID
1 3 1 4 1 
1 6 1
_nface
2
    4 8 3
1 5 2
_body
1 305 
1 7 5
_edgeID
1 3 1 5 1 
1 6 1
_nface
2
    4 9 3
1 5 2
_body
1 406 
1 7 5
_edgeID
1 4 1 6 1 
1 6 1
_nface
2
    4 10 3
1 5 2
_body
1 405 
1 7 5
_edgeID
1 4 1 5 1 
1 6 1
_nface
2
    4 11 3
1 5 2
_body
1 506 
1 7 5
_edgeID
1 5 1 6 1 
1 6 1
_nface
2
    5 0 2
1 7 1
_nodeID
1
1 6 1
_nedge
3
    5 1 2
1 7 1
_nodeID
2
1 6 1
_nedge
3
    5 2 2
1 7 1
_nodeID
3
1 6 1
_nedge
3
    5 3 2
1 7 1
_nodeID
4
1 6 1
_nedge
3
    5 4 2
1 7 1
_nodeID
5
1 6 1
_nedge
3
    5 5 2
1 7 1
_nodeID
6
1 6 1
_nedge
3
    5 6 2
1 7 1
_nodeID
7
1 6 1
_nedge
3
    5 7 2
1 7 1
_nodeID
8
1 6 1
_nedge
3
    0 0 0
