Data from Parasolid IGES Translator 17.0.34, Copyright(c) 2006 Siemens PS      1
LM Software. All Rights Reserved.                                       S      2
1H,,1H;,19HFEMAP Version 11.11,16Hcone_example.igs,27HBy Siemens PLM IncG      1
orporated,26HXPlus GENERIC/IGES 17.0.34,32,38, 6,308,15,6HNoname,1.000, G      2
6,1HM,1,1.000,15H20201228.093227,1.0e-008,0.00,6HNoname,6HNoname,11,0,  G      3
15H20201228.093227;                                                     G      4
     314       1       0       1       0       0       0       000010001D      1
     314       1       0       1       0       0       0               0D      2
     116       2       0       1       0       0       0       000010001D      3
     116       1       0       1       0       0       0               0D      4
     123       3       0       1       0       0       0       000010201D      5
     123       1       0       1       0       0       0               0D      6
     123       4       0       1       0       0       0       000010201D      7
     123       1       0       1       0       0       0               0D      8
     194       5       0       1       0       0       0       000010001D      9
     194       1       0       1       1       0       0               0D     10
     110       6       0       1       0       0       0       000010001D     11
     110       1       0       2       0       0       0               0D     12
     502       8       0       1       0       0       0       000010001D     13
     502       1       0       3       1       0       0               0D     14
     110      11       0       1       0       0       0       000010001D     15
     110       1       0       2       0       0       0               0D     16
     124      13       0       1       0       0       0       000010001D     17
     124       1       0       2       0       0       0               0D     18
     100      15       0       1       0       0      17       000010001D     19
     100       1       0       1       0       0       0               0D     20
     124      16       0       1       0       0       0       000010001D     21
     124       1       0       2       0       0       0               0D     22
     100      18       0       1       0       0      21       000010001D     23
     100       1       0       1       0       0       0               0D     24
     504      19       0       1       0       0       0       000010001D     25
     504       1       0       1       1       0       0               0D     26
     508      20       0       1       0       0       0       000010001D     27
     508       1       0       1       1       0       0               0D     28
     510      21       0       1       0       0       0       000010001D     29
     510       1      -1       1       1       0       0               0D     30
     314      22       0       1       0       0       0       000010001D     31
     314       1       0       1       0       0       0               0D     32
     116      23       0       1       0       0       0       000010001D     33
     116       1       0       1       0       0       0               0D     34
     123      24       0       1       0       0       0       000010201D     35
     123       1       0       1       0       0       0               0D     36
     123      25       0       1       0       0       0       000010201D     37
     123       1       0       1       0       0       0               0D     38
     194      26       0       1       0       0       0       000010001D     39
     194       1       0       1       1       0       0               0D     40
     508      27       0       1       0       0       0       000010001D     41
     508       1       0       1       1       0       0               0D     42
     510      28       0       1       0       0       0       000010001D     43
     510       1     -31       1       1       0       0               0D     44
     314      29       0       1       0       0       0       000010001D     45
     314       1       0       1       0       0       0               0D     46
     116      30       0       1       0       0       0       000010001D     47
     116       1       0       1       0       0       0               0D     48
     123      31       0       1       0       0       0       000010201D     49
     123       1       0       1       0       0       0               0D     50
     123      32       0       1       0       0       0       000010201D     51
     123       1       0       1       0       0       0               0D     52
     190      33       0       1       0       0       0       000010001D     53
     190       1       0       1       1       0       0               0D     54
     508      34       0       1       0       0       0       000010001D     55
     508       1       0       1       1       0       0               0D     56
     510      35       0       1       0       0       0       000010001D     57
     510       1     -45       1       1       0       0               0D     58
     514      36       0       1       0       0       0       000010001D     59
     514       1       0       1       1       0       0               0D     60
     186      37       0       1       0       0       0       000000001D     61
     186       1       0       1       0       0       0       1       0D     62
314,0.,50.1960813999176,50.1960813999176,10HMixedColor;                1P      1
116,0.,0.0508001016002,0.6944067557865;                                3P      2
123,0.,0.,1.;                                                          5P      3
123,1.,0.,0.;                                                          7P      4
194,3,5,0.70710678118655,44.99999999999996,7;                          9P      5
110,-0.,0.0508001016002,-0.01270002540005,-0.0254000508001,           11P      6
0.0508001016002,0.01270002540005;                                     11P      7
502,3,-0.0254000508001,0.0508001016002,0.01270002540005,              13P      8
0.0254000508001,0.0508001016002,0.01270002540005,0.,                  13P      9
0.0508001016002,-0.01270002540005;                                    13P     10
110,0.,0.0508001016002,-0.01270002540005,0.0254000508001,             15P     11
0.0508001016002,0.01270002540005;                                     15P     12
124,1.,0.,0.,0.,0.,-1.,0.,0.0508001016002,0.,0.,-1.,                  17P     13
0.01270002540005;                                                     17P     14
100,0.,0.,0.,0.0254000508001,0.,-0.0254000508001,0.;                  19P     15
124,1.,0.,0.,0.,0.,-1.,0.,0.0508001016002,0.,0.,-1.,                  21P     16
0.01270002540005;                                                     21P     17
100,0.,0.,0.,-0.0254000508001,0.,0.0254000508001,-0.;                 23P     18
504,4,11,13,3,13,1,15,13,3,13,2,19,13,2,13,1,23,13,1,13,2;            25P     19
508,3,0,25,2,0,0,0,25,1,1,0,0,25,4,1,0;                               27P     20
510,9,1,1,27;                                                         29P     21
314,0.,50.1960813999176,50.1960813999176,10HMixedColor;               31P     22
116,0.,0.0508001016002,0.6944067557865;                               33P     23
123,0.,0.,1.;                                                         35P     24
123,1.,0.,0.;                                                         37P     25
194,33,35,0.70710678118655,44.99999999999996,37;                      39P     26
508,3,0,25,1,0,0,0,25,2,1,0,0,25,3,1,0;                               41P     27
510,39,1,1,41;                                                        43P     28
314,0.,50.1960813999176,50.1960813999176,10HMixedColor;               45P     29
116,0.,0.0508001016002,0.01270002540005;                              47P     30
123,0.,0.,1.;                                                         49P     31
123,1.,0.,0.;                                                         51P     32
190,47,49,51;                                                         53P     33
508,2,0,25,3,0,0,0,25,4,0,0;                                          55P     34
510,53,1,1,55;                                                        57P     35
514,3,29,1,43,1,57,1;                                                 59P     36
186,59,1,0;                                                           61P     37
S      2G      4D     62P     37                                        T      1
