DBRep_DrawableShape

CASCADE Topology V1, (c) Matra-Datavision
Locations 0
Curve2ds 8
1 0 -1.0000000000000002 0 1 
1 6.2831853071795862 -1.0000000000000002 0 1 
1 0 -1.0000000000000002 1 0 
7 0 0  3 25 23  3.1415926535897931 -1.0000000000000002  3.1415926535897936 -0.99945574096475076  3.1415926535897927 -0.9983672228942515  3.1415926535897936 -0.99673444578850312  3.1415926535897931 -0.99510166868275451  3.1415926535897931 -0.99346889157700591  3.1415926535897931 -0.99183611447125752  3.1415926535897931 -0.99020333736550847  3.1415926535897931 -0.9885705602597602  3.1415926535897931 -0.98693778315401126  3.1415926535897931 -0.98530500604826299  3.1415926535897936 -0.98367222894251427  3.1415926535897931 -0.98203945183676578  3.1415926535897927 -0.98040667473101717  3.141592653589794 -0.97877389762526834  3.1415926535897936 -0.97714112051951985  3.1415926535897931 -0.97550834341377102  3.1415926535897927 -0.97387556630802263  3.1415926535897931 -0.97224278920227403  3.1415926535897927 -0.9706100120965252  3.1415926535897927 -0.9689772349907767  3.1415926535897931 -0.96734445788502799  3.1415926535897927 -0.96571168077927949  3.1415926535897936 -0.96462316270878068  3.1415926535897931 -0.964078903673531 
 0 4 0.0016327771057486034 1 0.0032655542114972068 1 0.00489833131724581 1 0.0065311084229944137 1 0.0081638855287430173 1 0.0097966626344916201 1 0.011429439740240223 1 0.013062216845988826 1 0.014694993951737428 1 0.016327771057486031 1 0.017960548163234634 1 0.019593325268983237 1 0.021226102374731839 1 0.022858879480480442 1 0.024491656586229045 1 0.026124433691977648 1 0.027757210797726251 1 0.029389987903474853 1 0.031022765009223456 1 0.032655542114972062 1 0.034288319220720669 1 0.035921096326469275 4
7 0 0  3 25 23  3.1415926535897931 -1.0000000000000002  3.1415926535897936 -0.99945574096475076  3.1415926535897927 -0.9983672228942515  3.1415926535897936 -0.99673444578850312  3.1415926535897931 -0.99510166868275451  3.1415926535897931 -0.99346889157700591  3.1415926535897931 -0.99183611447125752  3.1415926535897931 -0.99020333736550847  3.1415926535897931 -0.9885705602597602  3.1415926535897931 -0.98693778315401126  3.1415926535897931 -0.98530500604826299  3.1415926535897936 -0.98367222894251427  3.1415926535897931 -0.98203945183676578  3.1415926535897927 -0.98040667473101717  3.141592653589794 -0.97877389762526834  3.1415926535897936 -0.97714112051951985  3.1415926535897931 -0.97550834341377102  3.1415926535897927 -0.97387556630802263  3.1415926535897931 -0.97224278920227403  3.1415926535897927 -0.9706100120965252  3.1415926535897927 -0.9689772349907767  3.1415926535897931 -0.96734445788502799  3.1415926535897927 -0.96571168077927949  3.1415926535897936 -0.96462316270878068  3.1415926535897931 -0.964078903673531 
 0 4 0.0016327771057486034 1 0.0032655542114972068 1 0.00489833131724581 1 0.0065311084229944137 1 0.0081638855287430173 1 0.0097966626344916201 1 0.011429439740240223 1 0.013062216845988826 1 0.014694993951737428 1 0.016327771057486031 1 0.017960548163234634 1 0.019593325268983237 1 0.021226102374731839 1 0.022858879480480442 1 0.024491656586229045 1 0.026124433691977648 1 0.027757210797726251 1 0.029389987903474853 1 0.031022765009223456 1 0.032655542114972062 1 0.034288319220720669 1 0.035921096326469275 4
1 6.2831853071795862 -0.964078903673531 -1 0 
1 6.2831853071795862 -0.964078903673531 -1 0 
1 3.1415926535897931 -1.0000000000000002 1 0 
Curves 4
1 0 0.050800101600203221 -0.012700025400050805 0.70710678118654757 0 0.70710678118654757 
1 0 0.050800101600203221 -0.012700025400050805 -0.70710678118654757 8.6595605623549144e-017 0.70710678118654757 
2 0 0.050800101600203221 0.012700025400050805 0 0 -1 1 0 0 0 -1 0 0.02540005080010161
2 0 0.050800101600203221 0.012700025400050805 0 0 -1 1 0 0 0 -1 0 0.02540005080010161
Polygon3D 0
PolygonOnTriangulations 0
Surfaces 3
3 0 0.050800101600203221 0.69440675578649735 0 0 1 1 0 0 0 1 0 0.70710678118654735
0.78539816339744795
3 0 0.050800101600203221 0.69440675578649735 0 0 1 1 0 0 0 1 0 0.70710678118654735
0.78539816339744795
1 0 0.050800101600203221 0.012700025400050805 0 0 1 1 0 0 0 1 0 
Triangulations 0

TShapes 18
Ve
1e-007
0 0.0508001016002032 -0.0127000254000508
0 0

0101101
*
Ve
1e-007
0.0254000508001016 0.0508001016002032 0.0127000254000508
0 0

0101101
*
Ed
 1e-007 1 1 0
1  1 0 0 0.0359210963264693
2  1 1 0 0 0.0359210963264693
2  2 2 0 0 0.0359210963264693
4 CN 1 0 2 0
0

0101000
+18 0 -17 0 *
Ed
 1e-007 1 1 1
2  3 1 0 0 3.14159265358979
0

0101000
+18 0 -18 0 *
Ve
1e-007
-0.0254000508001016 0.0508001016002032 0.0127000254000508
0 0

0101101
*
Ed
 1e-007 1 1 0
1  2 0 0 0.0359210963264693
2  4 1 0 0 0.0359210963264693
2  5 2 0 0 0.0359210963264693
4 CN 1 0 2 0
0

0101000
+18 0 -14 0 *
Ed
 1e-007 1 1 0
1  3 0 3.14159265358979 6.28318530717959
2  6 1 0 3.14159265358979 6.28318530717959
0

0101000
+14 0 -17 0 *
Wi

0101100
-16 0 +15 0 +13 0 +12 0 *
Fa
0  1e-007 1 0

0111000
+11 0 *
Ed
 1e-007 1 1 0
1  4 0 0 3.14159265358979
2  7 2 0 0 3.14159265358979
0

0101000
+17 0 -14 0 *
Wi

0101100
-9 0 -12 0 *
Fa
0  1e-007 3 0

0111000
+8 0 *
Ed
 1e-007 1 1 1
2  8 2 0 0 3.14159265358979
0

0101000
+18 0 -18 0 *
Wi

0101100
-13 0 +6 0 +16 0 +9 0 *
Fa
0  1e-007 2 0

0111000
+5 0 *
Sh

0101100
+10 0 +7 0 +4 0 *
So

0100000
+3 0 *
Co

1100000
+2 0 *

+1 0 
##EGADS HEADER FILE-REV 1 ##
0
  1  1  3  3  6  3  4
1 15 1
__@@numbodies__
1
1 5 1
_body
1
1 5 1
_brch
1
2 8 3
_tParams
 1.905003810008e-03  5.715011430023e-04  2.000000000000e+01 
    2 0 4
1 5 2
_body
1 1 
1 5 2
_brch
1 1 
1 5 1
_hist
1
1 7 3
_faceID
1 1 1 
    2 1 4
1 5 2
_body
1 2 
1 5 2
_brch
1 2 
1 5 1
_hist
1
1 7 3
_faceID
1 2 1 
    2 2 4
1 5 2
_body
1 3 
1 5 2
_brch
1 3 
1 5 1
_hist
1
1 7 3
_faceID
1 3 1 
    4 0 3
1 5 2
_body
1 301 
1 7 5
_edgeID
1 1 1 3 2 
1 6 1
_nface
2
    4 1 3
1 5 2
_body
1 -3 
1 7 5
_edgeID
0 0 1 1 1 
1 6 1
_nface
1
    4 2 3
1 5 2
_body
1 103 
1 7 5
_edgeID
1 1 1 3 1 
1 6 1
_nface
2
    4 3 3
1 5 2
_body
1 102 
1 7 5
_edgeID
1 1 1 2 1 
1 6 1
_nface
2
    4 4 3
1 5 2
_body
1 302 
1 7 5
_edgeID
1 2 1 3 1 
1 6 1
_nface
2
    4 5 3
1 5 2
_body
1 -3 
1 7 5
_edgeID
0 0 1 3 1 
1 6 1
_nface
1
    5 0 2
1 7 1
_nodeID
1
1 6 1
_nedge
4
    5 1 2
1 7 1
_nodeID
2
1 6 1
_nedge
3
    5 2 2
1 7 1
_nodeID
3
1 6 1
_nedge
3
    0 0 0
