DBRep_DrawableShape

CASCADE Topology V1, (c) Matra-Datavision
Locations 0
Curve2ds 8
1 6.2831853071795862 0 -1 0 
1 6.2831853071795862 0 -1 0 
1 3.1415926535897931 0 0 -1 
1 3.1415926535897931 0 0 -1 
1 0 0 0 -1 
1 6.2831853071795862 0 0 -1 
1 0 -0.02540005080010161 1 0 
1 0 -0.02540005080010161 1 0 
Curves 6
2 0 0 -0.012700025400050805 0 0 1 1 0 0 0 1 0 0.012700025400050805
2 0 0 -0.012700025400050805 0 0 1 1 0 0 0 1 0 0.012700025400050805
1 -0.012700025400050805 1.5553045455262306e-018 -0.012700025400050805 0 0 1 
1 0.012700025400050805 0 -0.012700025400050805 0 0 1 
2 0 0 0.012700025400050805 0 0 -1 1 0 0 0 -1 0 0.012700025400050805
2 0 0 0.012700025400050805 0 0 -1 1 0 0 0 -1 0 0.012700025400050805
Polygon3D 0
PolygonOnTriangulations 0
Surfaces 4
1 0 0 -0.012700025400050805 0 0 -1 -1 0 0 0 1 0 
2 0 0 -0.012700025400050805 -0 -0 -1 1 0 0 0 -1 0 0.012700025400050805
2 0 0 -0.012700025400050805 -0 -0 -1 1 0 0 0 -1 0 0.012700025400050805
1 0 0 0.012700025400050805 0 0 1 1 0 0 0 1 0 
Triangulations 0

TShapes 21
Ve
1e-007
0.0127000254000508 0 -0.0127000254000508
0 0

0101101
*
Ve
1e-007
-0.0127000254000508 1.55530454552623e-018 -0.0127000254000508
0 0

0101101
*
Ed
 1e-007 1 1 0
1  1 0 0 3.14159265358979
2  1 2 0 0 3.14159265358979
0

0101000
+21 0 -20 0 *
Ed
 1e-007 1 1 0
1  2 0 3.14159265358979 6.28318530717959
2  2 3 0 3.14159265358979 6.28318530717959
0

0101000
+20 0 -21 0 *
Wi

0101100
-19 0 -18 0 *
Fa
0  1e-007 1 0

0111000
+17 0 *
Ve
1e-007
-0.0127000254000508 1.55530454552623e-018 0.0127000254000508
0 0

0101101
*
Ed
 1e-007 1 1 0
1  3 0 0 0.0254000508001016
2  3 3 0 0 0.0254000508001016
2  4 2 0 0 0.0254000508001016
4 CN 3 0 2 0
0

0101000
+20 0 -15 0 *
Ve
1e-007
0.0127000254000508 0 0.0127000254000508
0 0

0101101
*
Ed
 1e-007 1 1 0
1  4 0 0 0.0254000508001016
2  5 3 0 0 0.0254000508001016
2  6 2 0 0 0.0254000508001016
4 CN 3 0 2 0
0

0101000
+21 0 -13 0 *
Ed
 1e-007 1 1 0
1  5 0 0 3.14159265358979
2  7 3 0 0 3.14159265358979
0

0101000
+13 0 -15 0 *
Wi

0101100
-14 0 +18 0 +12 0 +11 0 *
Fa
0  1e-007 3 0

0111000
+10 0 *
Ed
 1e-007 1 1 0
1  6 0 3.14159265358979 6.28318530717959
2  8 2 0 3.14159265358979 6.28318530717959
0

0101000
+15 0 -13 0 *
Wi

0101100
-11 0 -8 0 *
Fa
0  1e-007 4 0

0111000
+7 0 *
Wi

0101100
+19 0 +14 0 +8 0 -12 0 *
Fa
0  1e-007 2 0

0111000
+5 0 *
Sh

0101100
+16 0 +9 0 +6 0 +4 0 *
So

0100000
+3 0 *
Co

1100000
+2 0 *

+1 0 
##EGADS HEADER FILE-REV 1 ##
0
  1  1  4  4  6  4  4
1 15 1
__@@numbodies__
1
1 5 1
_body
1
1 5 1
_brch
1
2 8 3
_tParams
 1.099854462515e-03  3.299563387545e-04  2.000000000000e+01 
    2 0 4
1 5 2
_body
1 1 
1 5 2
_brch
1 1 
1 5 1
_hist
1
1 7 3
_faceID
1 1 1 
    2 1 4
1 5 2
_body
1 2 
1 5 2
_brch
1 2 
1 5 1
_hist
1
1 7 3
_faceID
1 2 1 
    2 2 4
1 5 2
_body
1 3 
1 5 2
_brch
1 3 
1 5 1
_hist
1
1 7 3
_faceID
1 3 1 
    2 3 4
1 5 2
_body
1 4 
1 5 2
_brch
1 4 
1 5 1
_hist
1
1 7 3
_faceID
1 4 1 
    4 0 3
1 5 2
_body
1 401 
1 7 5
_edgeID
1 1 1 4 1 
1 6 1
_nface
2
    4 1 3
1 5 2
_body
1 201 
1 7 5
_edgeID
1 1 1 2 1 
1 6 1
_nface
2
    4 2 3
1 5 2
_body
1 402 
1 7 5
_edgeID
1 2 1 4 1 
1 6 1
_nface
2
    4 3 3
1 5 2
_body
1 204 
1 7 5
_edgeID
1 2 1 4 2 
1 6 1
_nface
2
    4 4 3
1 5 2
_body
1 203 
1 7 5
_edgeID
1 2 1 3 1 
1 6 1
_nface
2
    4 5 3
1 5 2
_body
1 403 
1 7 5
_edgeID
1 3 1 4 1 
1 6 1
_nface
2
    5 0 2
1 7 1
_nodeID
1
1 6 1
_nedge
3
    5 1 2
1 7 1
_nodeID
2
1 6 1
_nedge
3
    5 2 2
1 7 1
_nodeID
3
1 6 1
_nedge
3
    5 3 2
1 7 1
_nodeID
4
1 6 1
_nedge
3
    0 0 0
