DBRep_DrawableShape

CASCADE Topology V1, (c) Matra-Datavision
Locations 0
Curve2ds 8
7 0 0  3 25 23  0 0  0.04759988869075444 0  0.14279966607226333 0  0.2855993321445266 0  0.42839899821679006 0  0.57119866428905319 0  0.71399833036131644 0  0.8567979964335799 0  0.99959766250584325 0  1.1423973285781066 0  1.2851969946503701 0  1.4279966607226331 0  1.5707963267948966 0  1.7135959928671598 0  1.856395658939423 0  1.9991953250116863 0  2.1419949910839504 0  2.2847946571562128 0  2.4275943232284769 0  2.5703939893007401 0  2.7131936553730029 0  2.8559933214452662 0  2.9987929875175308 0  3.0939927648990384 -0  3.1415926535897931 0 
 0 4 0.14279966607226333 1 0.28559933214452665 1 0.42839899821678995 1 0.5711986642890533 1 0.71399833036131666 1 0.8567979964335799 1 0.99959766250584325 1 1.1423973285781066 1 1.2851969946503699 1 1.4279966607226333 1 1.5707963267948966 1 1.7135959928671598 1 1.8563956589394233 1 1.9991953250116865 1 2.14199499108395 1 2.2847946571562132 1 2.4275943232284765 1 2.5703939893007397 1 2.7131936553730034 1 2.8559933214452666 1 2.9987929875175299 1 3.1415926535897931 4
7 0 0  3 25 23  3.1415926535897931 0  3.1415926535897931 1.9242462727349696  3.1415926535897927 5.7727388182049078  3.141592653589794 11.545477636409819  3.1415926535897931 17.318216454614728  3.1415926535897936 23.090955272819635  3.1415926535897931 28.863694091024549  3.1415926535897936 34.636432909229462  3.1415926535897936 40.409171727434362  3.1415926535897931 46.181910545639262  3.1415926535897931 51.954649363844176  3.1415926535897927 57.727388182049076  3.1415926535897931 63.500127000253997  3.1415926535897931 69.272865818458911  3.1415926535897927 75.045604636663796  3.1415926535897922 80.81834345486871  3.1415926535897931 86.591082273073638  3.1415926535897931 92.363821091278538  3.141592653589794 98.136559909483466  3.1415926535897918 103.90929872768832  3.1415926535897931 109.68203754589327  3.1415926535897931 115.45477636409815  3.1415926535897931 121.22751518230309  3.1415926535897931 125.07600772777302  3.1415926535897931 127.00025400050799 
 0 4 5.7727388182049086 1 11.545477636409817 1 17.318216454614728 1 23.090955272819635 1 28.863694091024541 1 34.636432909229455 1 40.409171727434362 1 46.181910545639269 1 51.954649363844176 1 57.727388182049083 1 63.500127000253997 1 69.272865818458911 1 75.045604636663811 1 80.818343454868725 1 86.591082273073624 1 92.363821091278538 1 98.136559909483452 1 103.90929872768835 1 109.68203754589327 1 115.45477636409817 1 121.22751518230308 1 127.00025400050799 4
7 0 0  3 25 23  3.1415926535897931 0  3.1415926535897931 1.9242462727349696  3.1415926535897927 5.7727388182049078  3.141592653589794 11.545477636409819  3.1415926535897931 17.318216454614728  3.1415926535897936 23.090955272819635  3.1415926535897931 28.863694091024549  3.1415926535897936 34.636432909229462  3.1415926535897936 40.409171727434362  3.1415926535897931 46.181910545639262  3.1415926535897931 51.954649363844176  3.1415926535897927 57.727388182049076  3.1415926535897931 63.500127000253997  3.1415926535897931 69.272865818458911  3.1415926535897927 75.045604636663796  3.1415926535897922 80.81834345486871  3.1415926535897931 86.591082273073638  3.1415926535897931 92.363821091278538  3.141592653589794 98.136559909483466  3.1415926535897918 103.90929872768832  3.1415926535897931 109.68203754589327  3.1415926535897931 115.45477636409815  3.1415926535897931 121.22751518230309  3.1415926535897931 125.07600772777302  3.1415926535897931 127.00025400050799 
 0 4 5.7727388182049086 1 11.545477636409817 1 17.318216454614728 1 23.090955272819635 1 28.863694091024541 1 34.636432909229455 1 40.409171727434362 1 46.181910545639269 1 51.954649363844176 1 57.727388182049083 1 63.500127000253997 1 69.272865818458911 1 75.045604636663811 1 80.818343454868725 1 86.591082273073624 1 92.363821091278538 1 98.136559909483452 1 103.90929872768835 1 109.68203754589327 1 115.45477636409817 1 121.22751518230308 1 127.00025400050799 4
7 0 0  3 25 23  3.1415926535897931 127.00025400050799  3.0939927648990384 127.00025400050799  2.9987929875175303 127.00025400050799  2.855993321445268 127.00025400050805  2.7131936553730029 127.00025400050795  2.5703939893007401 127.00025400050799  2.4275943232284773 127.00025400050802  2.2847946571562128 127.00025400050797  2.1419949910839504 127.00025400050798  1.9991953250116865 127.00025400050802  1.8563956589394233 127.00025400050801  1.7135959928671598 127.00025400050797  1.5707963267948963 127.00025400050799  1.4279966607226333 127.00025400050797  1.2851969946503703 127.00025400050798  1.1423973285781071 127.00025400050799  0.99959766250584325 127.00025400050795  0.85679799643358057 127.00025400050804  0.71399833036131666 127.00025400050799  0.57119866428905353 127.00025400050799  0.42839899821679012 127.00025400050799  0.28559933214452665 127.00025400050797  0.14279966607226358 127.00025400050802  0.047599888690754565 127.00025400050799  0 127.00025400050799 
 3.1415926535897931 4 3.2843923196620564 1 3.4271919857343196 1 3.5699916518065828 1 3.7127913178788465 1 3.8555909839511098 1 3.998390650023373 1 4.1411903160956367 1 4.2839899821678999 1 4.4267896482401632 1 4.5695893143124264 1 4.7123889803846897 1 4.8551886464569529 1 4.9979883125292162 1 5.1407879786014794 1 5.2835876446737426 1 5.4263873107460068 1 5.5691869768182691 1 5.7119866428905333 1 5.8547863089627965 1 5.9975859750350597 1 6.140385641107323 1 6.2831853071795862 4
7 0 0  3 25 23  0 0  0 1.9242462727349696  0 5.7727388182049078  0 11.545477636409819  0 17.318216454614728  0 23.090955272819635  0 28.863694091024549  0 34.636432909229462  0 40.409171727434362  0 46.181910545639262  0 51.954649363844176  0 57.727388182049076  0 63.500127000253997  0 69.272865818458911  0 75.045604636663796  0 80.81834345486871  0 86.591082273073638  0 92.363821091278538  0 98.136559909483466  0 103.90929872768832  0 109.68203754589327  0 115.45477636409815  0 121.22751518230309  -0 125.07600772777302  0 127.00025400050799 
 0 4 5.7727388182049086 1 11.545477636409817 1 17.318216454614728 1 23.090955272819635 1 28.863694091024541 1 34.636432909229455 1 40.409171727434362 1 46.181910545639269 1 51.954649363844176 1 57.727388182049083 1 63.500127000253997 1 69.272865818458911 1 75.045604636663811 1 80.818343454868725 1 86.591082273073624 1 92.363821091278538 1 98.136559909483452 1 103.90929872768835 1 109.68203754589327 1 115.45477636409817 1 121.22751518230308 1 127.00025400050799 4
7 0 0  3 25 23  6.2831853071795862 0  6.2831853071795862 1.9242462727349696  6.2831853071795862 5.7727388182049078  6.2831853071795862 11.545477636409819  6.2831853071795862 17.318216454614728  6.2831853071795862 23.090955272819635  6.2831853071795862 28.863694091024549  6.2831853071795862 34.636432909229462  6.2831853071795862 40.409171727434362  6.2831853071795862 46.181910545639262  6.2831853071795862 51.954649363844176  6.2831853071795862 57.727388182049076  6.2831853071795862 63.500127000253997  6.2831853071795862 69.272865818458911  6.2831853071795862 75.045604636663796  6.2831853071795862 80.81834345486871  6.2831853071795862 86.591082273073638  6.2831853071795862 92.363821091278538  6.2831853071795862 98.136559909483466  6.2831853071795862 103.90929872768832  6.2831853071795862 109.68203754589327  6.2831853071795862 115.45477636409815  6.2831853071795862 121.22751518230309  6.2831853071795862 125.07600772777302  6.2831853071795862 127.00025400050799 
 0 4 5.7727388182049086 1 11.545477636409817 1 17.318216454614728 1 23.090955272819635 1 28.863694091024541 1 34.636432909229455 1 40.409171727434362 1 46.181910545639269 1 51.954649363844176 1 57.727388182049083 1 63.500127000253997 1 69.272865818458911 1 75.045604636663811 1 80.818343454868725 1 86.591082273073624 1 92.363821091278538 1 98.136559909483452 1 103.90929872768835 1 109.68203754589327 1 115.45477636409817 1 121.22751518230308 1 127.00025400050799 4
7 0 0  3 25 23  6.2831853071795862 127.00025400050799  6.2355854184888315 127.00025400050798  6.1403856411073239 127.00025400050801  5.9975859750350589 127.00025400050797  5.8547863089627965 127.00025400050801  5.7119866428905341 127.00025400050801  5.5691869768182682 127.00025400050798  5.4263873107460077 127.00025400050799  5.2835876446737426 127.00025400050802  5.1407879786014794 127.00025400050798  4.9979883125292162 127.00025400050799  4.8551886464569529 127.00025400050798  4.7123889803846888 127.00025400050799  4.5695893143124264 127.00025400050801  4.4267896482401632 127.00025400050797  4.2839899821678999 127.00025400050798  4.1411903160956367 127.00025400050798  3.998390650023373 127.00025400050801  3.8555909839511098 127.00025400050801  3.7127913178788465 127.00025400050801  3.5699916518065828 127.00025400050797  3.4271919857343196 127.00025400050801  3.2843923196620568 127.00025400050802  3.1891925422805474 127.00025400050799  3.1415926535897931 127.00025400050799 
 0 4 0.14279966607226333 1 0.28559933214452665 1 0.42839899821678995 1 0.5711986642890533 1 0.71399833036131666 1 0.8567979964335799 1 0.99959766250584325 1 1.1423973285781066 1 1.2851969946503699 1 1.4279966607226333 1 1.5707963267948966 1 1.7135959928671598 1 1.8563956589394233 1 1.9991953250116865 1 2.14199499108395 1 2.2847946571562132 1 2.4275943232284765 1 2.5703939893007397 1 2.7131936553730034 1 2.8559933214452666 1 2.9987929875175299 1 3.1415926535897931 4
7 0 0  3 25 23  3.1415926535897931 0  3.1891925422805474 0  3.284392319662055 0  3.4271919857343205 0  3.569991651806582 0  3.7127913178788461 0  3.8555909839511093 0  3.9983906500233726 0  4.1411903160956367 0  4.2839899821678999 0  4.4267896482401632 0  4.5695893143124255 0  4.7123889803846897 0  4.855188646456952 0  4.9979883125292162 0  5.1407879786014794 0  5.2835876446737426 0  5.4263873107460068 0  5.56918697681827 0  5.7119866428905333 0  5.8547863089627974 0  5.997585975035058 0  6.140385641107323 0  6.2355854184888315 -0  6.2831853071795862 0 
 3.1415926535897931 4 3.2843923196620564 1 3.4271919857343196 1 3.5699916518065828 1 3.7127913178788465 1 3.8555909839511098 1 3.998390650023373 1 4.1411903160956367 1 4.2839899821678999 1 4.4267896482401632 1 4.5695893143124264 1 4.7123889803846897 1 4.8551886464569529 1 4.9979883125292162 1 5.1407879786014794 1 5.2835876446737426 1 5.4263873107460068 1 5.5691869768182691 1 5.7119866428905333 1 5.8547863089627965 1 5.9975859750350597 1 6.140385641107323 1 6.2831853071795862 4
Curves 6
2 0 0 0 0 0 1 1 0 -0 -0 1 0 12.7000254000508
1 -12.7000254000508 1.5553045455262302e-015 0 0 0 1 
2 0 0 127.00025400050799 0 0 -1 1 0 0 0 -1 0 12.7000254000508
1 12.7000254000508 0 0 0 0 1 
2 0 0 127.00025400050799 0 0 -1 1 0 0 0 -1 0 12.7000254000508
2 0 0 0 0 0 1 1 0 -0 -0 1 0 12.7000254000508
Polygon3D 0
PolygonOnTriangulations 0
Surfaces 4
2 0 0 0 0 0 1 1 0 -0 -0 1 0 12.7000254000508
2 0 0 0 0 0 1 1 0 -0 -0 1 0 12.7000254000508
1 0 0 127.00025400050799 0 0 1 1 0 -0 -0 1 0 
1 0 0 0 0 0 -1 -1 0 0 0 1 0 
Triangulations 0

TShapes 21
Ve
1.00005e-007
12.7000254000508 0 0
0 0

0101101
*
Ve
1.00005e-007
-12.7000254000508 1.55530454552623e-015 0
0 0

0101101
*
Ed
 1.00005e-007 1 1 0
1  1 0 0 3.14159265358979
2  1 1 0 0 3.14159265358979
0

0101000
+21 0 -20 0 *
Ve
1.00005e-007
-12.7000254000508 1.55530454552623e-015 127.000254000508
0 0

0101101
*
Ed
 1e-007 1 1 0
1  2 0 0 127.000254000508
2  2 1 0 0 127.000254000508
2  3 2 0 0 127.000254000508
4 G1 1 0 2 0
0

0101000
+20 0 -18 0 *
Ve
1.00005e-007
12.7000254000508 0 127.000254000508
0 0

0101101
*
Ed
 1.00005e-007 1 1 0
1  3 0 3.14159265358979 6.28318530717959
2  4 1 0 3.14159265358979 6.28318530717959
0

0101000
+18 0 -16 0 *
Ed
 1e-007 1 1 0
1  4 0 0 127.000254000508
2  5 1 0 0 127.000254000508
2  6 2 0 0 127.000254000508
4 G1 1 0 2 0
0

0101000
+21 0 -16 0 *
Wi

0101100
+19 0 +17 0 +15 0 -14 0 *
Fa
0  1e-007 1 0

0111000
+13 0 *
Ed
 1.00005e-007 1 1 0
1  5 0 0 3.14159265358979
2  7 2 0 0 3.14159265358979
0

0101000
+16 0 -18 0 *
Wi

0101100
-11 0 -15 0 *
Fa
0  1e-007 3 0

0111000
+10 0 *
Ed
 1.00005e-007 1 1 0
1  6 0 3.14159265358979 6.28318530717959
2  8 2 0 3.14159265358979 6.28318530717959
0

0101000
+20 0 -21 0 *
Wi

0101100
-19 0 -8 0 *
Fa
0  1e-007 4 0

0111000
+7 0 *
Wi

0101100
-17 0 +8 0 +14 0 +11 0 *
Fa
0  1e-007 2 0

0111000
+5 0 *
Sh

0101100
+12 0 +9 0 +6 0 +4 0 *
So

0100100
+3 0 *
Co

1100000
+2 0 *

+1 0 
##EGADS HEADER FILE-REV 1 ##
0
  1  1  4  4  6  4  3
1 5 1
_body
1
1 5 1
_brch
1
2 8 3
_tParams
 3.320464439297e+00  1.328185775719e-01  1.500000000000e+01 
    2 0 4
1 5 2
_body
1 1 
1 5 2
_brch
1 1 
1 7 3
_faceID
1 1 1 
1 5 1
_hist
1
    2 1 4
1 5 2
_body
1 2 
1 5 2
_brch
1 2 
1 7 3
_faceID
1 2 1 
1 5 1
_hist
1
    2 2 4
1 5 2
_body
1 3 
1 5 2
_brch
1 3 
1 7 3
_faceID
1 3 1 
1 5 1
_hist
1
    2 3 4
1 5 2
_body
1 4 
1 5 2
_brch
1 4 
1 7 3
_faceID
1 4 1 
1 5 1
_hist
1
    4 0 3
1 5 2
_body
1 103 
1 7 5
_edgeID
1 1 1 3 1 
1 6 1
_nface
2
    4 1 3
1 5 2
_body
1 104 
1 7 5
_edgeID
1 1 1 4 1 
1 6 1
_nface
2
    4 2 3
1 5 2
_body
1 102 
1 7 5
_edgeID
1 1 1 2 1 
1 6 1
_nface
2
    4 3 3
1 5 2
_body
1 104 
1 7 5
_edgeID
1 1 1 4 2 
1 6 1
_nface
2
    4 4 3
1 5 2
_body
1 204 
1 7 5
_edgeID
1 2 1 4 1 
1 6 1
_nface
2
    4 5 3
1 5 2
_body
1 304 
1 7 5
_edgeID
1 3 1 4 1 
1 6 1
_nface
2
    5 0 2
1 7 1
_nodeID
1
1 6 1
_nedge
3
    5 1 2
1 7 1
_nodeID
2
1 6 1
_nedge
3
    5 2 2
1 7 1
_nodeID
3
1 6 1
_nedge
3
    5 3 2
1 7 1
_nodeID
4
1 6 1
_nedge
3
    0 0 0
