Data from Parasolid IGES Translator 17.0.34, Copyright(c) 2006 Siemens PS      1
LM Software. All Rights Reserved.                                       S      2
1H,,1H;,19HFEMAP Version 11.11,20Hcylinder_example.igs,27HBy Siemens PLMG      1
 Incorporated,26HXPlus GENERIC/IGES 17.0.34,32,38, 6,308,15,6HNoname,   G      2
1.000,6,1HM,1,1.000,15H20201228.094525,1.0e-008,0.00,6HNoname,6HNoname, G      3
11,0,15H20201228.094525;                                                G      4
     314       1       0       1       0       0       0       000010001D      1
     314       1       0       1       0       0       0               0D      2
     116       2       0       1       0       0       0       000010001D      3
     116       1       0       1       0       0       0               0D      4
     123       3       0       1       0       0       0       000010201D      5
     123       1       0       1       0       0       0               0D      6
     123       4       0       1       0       0       0       000010201D      7
     123       1       0       1       0       0       0               0D      8
     190       5       0       1       0       0       0       000010001D      9
     190       1       0       1       1       0       0               0D     10
     110       6       0       1       0       0       0       000010001D     11
     110       1       0       2       0       0       0               0D     12
     502       8       0       1       0       0       0       000010001D     13
     502       1       0       3       1       0       0               0D     14
     110      11       0       1       0       0       0       000010001D     15
     110       1       0       2       0       0       0               0D     16
     124      13       0       1       0       0       0       000010001D     17
     124       1       0       1       0       0       0               0D     18
     100      14       0       1       0       0      17       000010001D     19
     100       1       0       1       0       0       0               0D     20
     124      15       0       1       0       0       0       000010001D     21
     124       1       0       1       0       0       0               0D     22
     100      16       0       1       0       0      21       000010001D     23
     100       1       0       1       0       0       0               0D     24
     124      17       0       1       0       0       0       000010001D     25
     124       1       0       1       0       0       0               0D     26
     100      18       0       1       0       0      25       000010001D     27
     100       1       0       1       0       0       0               0D     28
     124      19       0       1       0       0       0       000010001D     29
     124       1       0       1       0       0       0               0D     30
     100      20       0       1       0       0      29       000010001D     31
     100       1       0       1       0       0       0               0D     32
     504      21       0       1       0       0       0       000010001D     33
     504       1       0       2       1       0       0               0D     34
     508      23       0       1       0       0       0       000010001D     35
     508       1       0       1       1       0       0               0D     36
     510      24       0       1       0       0       0       000010001D     37
     510       1      -1       1       1       0       0               0D     38
     314      25       0       1       0       0       0       000010001D     39
     314       1       0       1       0       0       0               0D     40
     116      26       0       1       0       0       0       000010001D     41
     116       1       0       1       0       0       0               0D     42
     123      27       0       1       0       0       0       000010201D     43
     123       1       0       1       0       0       0               0D     44
     123      28       0       1       0       0       0       000010201D     45
     123       1       0       1       0       0       0               0D     46
     192      29       0       1       0       0       0       000010001D     47
     192       1       0       1       1       0       0               0D     48
     508      30       0       1       0       0       0       000010001D     49
     508       1       0       1       1       0       0               0D     50
     510      31       0       1       0       0       0       000010001D     51
     510       1     -39       1       1       0       0               0D     52
     314      32       0       1       0       0       0       000010001D     53
     314       1       0       1       0       0       0               0D     54
     116      33       0       1       0       0       0       000010001D     55
     116       1       0       1       0       0       0               0D     56
     123      34       0       1       0       0       0       000010201D     57
     123       1       0       1       0       0       0               0D     58
     123      35       0       1       0       0       0       000010201D     59
     123       1       0       1       0       0       0               0D     60
     192      36       0       1       0       0       0       000010001D     61
     192       1       0       1       1       0       0               0D     62
     508      37       0       1       0       0       0       000010001D     63
     508       1       0       1       1       0       0               0D     64
     510      38       0       1       0       0       0       000010001D     65
     510       1     -53       1       1       0       0               0D     66
     314      39       0       1       0       0       0       000010001D     67
     314       1       0       1       0       0       0               0D     68
     116      40       0       1       0       0       0       000010001D     69
     116       1       0       1       0       0       0               0D     70
     123      41       0       1       0       0       0       000010201D     71
     123       1       0       1       0       0       0               0D     72
     123      42       0       1       0       0       0       000010201D     73
     123       1       0       1       0       0       0               0D     74
     190      43       0       1       0       0       0       000010001D     75
     190       1       0       1       1       0       0               0D     76
     508      44       0       1       0       0       0       000010001D     77
     508       1       0       1       1       0       0               0D     78
     510      45       0       1       0       0       0       000010001D     79
     510       1     -67       1       1       0       0               0D     80
     514      46       0       1       0       0       0       000010001D     81
     514       1       0       1       1       0       0               0D     82
     186      47       0       1       0       0       0       000000001D     83
     186       1       0       1       0       0       0       1       0D     84
314,0.,50.1960813999176,50.1960813999176,10HMixedColor;                1P      1
116,0.,0.,-0.01270002540005;                                           3P      2
123,0.,0.,-1.;                                                         5P      3
123,0.,-1.,0.;                                                         7P      4
190,3,5,7;                                                             9P      5
110,-0.01270002540005,-0.,0.01270002540005,-0.01270002540005,         11P      6
-0.,-0.01270002540005;                                                11P      7
502,4,-0.01270002540005,-0.,0.01270002540005,-0.01270002540005,       13P      8
-0.,-0.01270002540005,0.01270002540005,0.,-0.01270002540005,          13P      9
0.01270002540005,0.,0.01270002540005;                                 13P     10
110,0.01270002540005,0.,0.01270002540005,0.01270002540005,0.,         15P     11
-0.01270002540005;                                                    15P     12
124,1.,0.,0.,0.,0.,-1.,0.,0.,0.,0.,-1.,0.01270002540005;              17P     13
100,0.,0.,0.,0.01270002540005,0.,-0.01270002540005,0.;                19P     14
124,1.,0.,0.,0.,0.,-1.,0.,0.,0.,0.,-1.,0.01270002540005;              21P     15
100,0.,0.,0.,-0.01270002540005,0.,0.01270002540005,-0.;               23P     16
124,1.,0.,0.,0.,0.,1.,0.,0.,0.,0.,1.,-0.01270002540005;               25P     17
100,0.,0.,0.,0.01270002540005,0.,-0.01270002540005,0.;                27P     18
124,1.,0.,0.,0.,0.,1.,0.,0.,0.,0.,1.,-0.01270002540005;               29P     19
100,0.,0.,0.,-0.01270002540005,0.,0.01270002540005,-0.;               31P     20
504,6,11,13,1,13,2,15,13,4,13,3,19,13,4,13,1,23,13,1,13,4,27,13,      33P     21
3,13,2,31,13,2,13,3;                                                  33P     22
508,2,0,33,5,0,0,0,33,6,0,0;                                          35P     23
510,9,1,1,35;                                                         37P     24
314,0.,50.1960813999176,50.1960813999176,10HMixedColor;               39P     25
116,0.,0.,-0.01270002540005;                                          41P     26
123,0.,0.,1.;                                                         43P     27
123,1.,0.,0.;                                                         45P     28
192,41,43,0.01270002540005,45;                                        47P     29
508,4,0,33,1,0,0,0,33,4,1,0,0,33,2,1,0,0,33,5,1,0;                    49P     30
510,47,1,1,49;                                                        51P     31
314,0.,50.1960813999176,50.1960813999176,10HMixedColor;               53P     32
116,0.,0.,-0.01270002540005;                                          55P     33
123,0.,0.,1.;                                                         57P     34
123,1.,0.,0.;                                                         59P     35
192,55,57,0.01270002540005,59;                                        61P     36
508,4,0,33,3,1,0,0,33,1,1,0,0,33,6,1,0,0,33,2,0,0;                    63P     37
510,61,1,1,63;                                                        65P     38
314,0.,50.1960813999176,50.1960813999176,10HMixedColor;               67P     39
116,0.,0.,0.01270002540005;                                           69P     40
123,0.,0.,1.;                                                         71P     41
123,1.,0.,0.;                                                         73P     42
190,69,71,73;                                                         75P     43
508,2,0,33,3,0,0,0,33,4,0,0;                                          77P     44
510,75,1,1,77;                                                        79P     45
514,4,37,1,51,1,65,1,79,1;                                            81P     46
186,81,1,0;                                                           83P     47
S      2G      4D     84P     47                                        T      1
