DBRep_DrawableShape

CASCADE Topology V1, (c) Matra-Datavision
Locations 0
Curve2ds 0
Curves 4
1 12.7000254000508 0 0 0 1 0 
1 0 12.7000254000508 0 -1 0 0 
1 -12.7000254000508 0 0 0 -1 0 
1 0 -12.7000254000508 0 1 0 0 
Polygon3D 0
PolygonOnTriangulations 0
Surfaces 1
1 12.7000254000508 -12.7000254000508 0 0 0 1 0 1 0 -1 0 0 
Triangulations 0

TShapes 12
Ve
1.00005e-007
12.7000254000508 -12.7000254000508 0
0 0

0101101
*
Ve
1.00005e-007
12.7000254000508 12.7000254000508 0
0 0

0101101
*
Ed
 1.00005e-007 1 1 0
1  1 0 -12.7000254000508 12.7000254000508
0

0101000
+12 0 -11 0 *
Ve
1.00005e-007
-12.7000254000508 12.7000254000508 0
0 0

0101101
*
Ed
 1.00005e-007 1 1 0
1  2 0 -12.7000254000508 12.7000254000508
0

0101000
+11 0 -9 0 *
Ve
1.00005e-007
-12.7000254000508 -12.7000254000508 0
0 0

0101101
*
Ed
 1.00005e-007 1 1 0
1  3 0 -12.7000254000508 12.7000254000508
0

0101000
+9 0 -7 0 *
Ed
 1.00005e-007 1 1 0
1  4 0 -12.7000254000508 12.7000254000508
0

0101000
+7 0 -12 0 *
Wi

0101100
+10 0 +8 0 +6 0 +5 0 *
Fa
0  1e-007 1 0

0111000
+4 0 *
Sh

0101000
+3 0 *
Co

1100000
+2 0 *

+1 0 
##EGADS HEADER FILE-REV 1 ##
0
  0  1  1  1  4  4  3
1 5 1
_body
1
1 5 1
_brch
1
2 8 3
_tParams
 8.980274152328e-01  3.592109660931e-02  1.500000000000e+01 
    2 0 4
1 5 2
_body
1 1 
1 5 2
_brch
1 1 
1 7 3
_faceID
1 1 1 
1 5 1
_hist
1
    4 0 3
1 5 2
_body
1 -3 
1 7 5
_edgeID
0 0 1 1 4 
1 6 1
_nface
1
    4 1 3
1 5 2
_body
1 -3 
1 7 5
_edgeID
0 0 1 1 3 
1 6 1
_nface
1
    4 2 3
1 5 2
_body
1 -3 
1 7 5
_edgeID
0 0 1 1 1 
1 6 1
_nface
1
    4 3 3
1 5 2
_body
1 -3 
1 7 5
_edgeID
0 0 1 1 2 
1 6 1
_nface
1
    5 0 2
1 7 1
_nodeID
1
1 6 1
_nedge
2
    5 1 2
1 7 1
_nodeID
2
1 6 1
_nedge
2
    5 2 2
1 7 1
_nodeID
3
1 6 1
_nedge
2
    5 3 2
1 7 1
_nodeID
4
1 6 1
_nedge
2
    0 0 0
