DBRep_DrawableShape

CASCADE Topology V1, (c) Matra-Datavision
Locations 0
Curve2ds 0
Curves 2
2 0 0 0 0 0 1 1 0 -0 -0 1 0 0.0254000508001016
2 0 0 0 0 0 1 1 0 -0 -0 1 0 0.0254000508001016
Polygon3D 0
PolygonOnTriangulations 0
Surfaces 1
1 0.0254000508001016 0 0 0 0 1 1 0 -0 -0 1 0 
Triangulations 0

TShapes 8
Ve
1e-007
0.0254000508001016 0 0
0 0

0101101
*
Ve
1e-007
-0.0254000508001016 3.11060909105246e-018 0
0 0

0101101
*
Ed
 1e-007 1 1 0
1  1 0 0 3.14159265358979
0

0101000
+8 0 -7 0 *
Ed
 1e-007 1 1 0
1  2 0 3.14159265358979 6.28318530717959
0

0101000
+7 0 -8 0 *
Wi

0101100
+6 0 +5 0 *
Fa
0  1e-007 1 0

0111000
+4 0 *
Sh

0101000
+3 0 *
Co

1100000
+2 0 *

+1 0 
##EGADS HEADER FILE-REV 1 ##
0
  0  1  1  1  2  2  12
1 5 1
_body
1
1 5 1
_brch
1
2 8 3
_tParams
 1.944042795560e-03  7.776171182241e-05  1.500000000000e+01 
1 10 1
__brtype__
117
3 8 38
__arg1__
#C:\Users\Brandon\Desktop\unit_disc.stp
2 8 1
__arg2__
 1.000000000000e+00
1 9 1
__ibrch__
1
1 9 1
__ileft__
-1
1 9 1
__irite__
-1
1 10 1
__igroup__
1
1 10 1
__botype__
401
2 15 1
__@@numbodies__
 1.000000000000e+00
    2 0 4
1 5 2
_body
1 1 
1 5 2
_brch
1 1 
1 7 3
_faceID
1 1 1 
1 5 1
_hist
1
    4 0 3
1 5 2
_body
1 -3 
1 7 5
_edgeID
0 0 1 1 2 
1 6 1
_nface
1
    4 1 3
1 5 2
_body
1 -3 
1 7 5
_edgeID
0 0 1 1 1 
1 6 1
_nface
1
    5 0 2
1 7 1
_nodeID
1
1 6 1
_nedge
2
    5 1 2
1 7 1
_nodeID
2
1 6 1
_nedge
2
    0 0 0
